<?xml version="1.0" encoding="utf-8"?>
<!-- Generator: Adobe Illustrator 24.1.2, SVG Export Plug-In . SVG Version: 6.00 Build 0)  -->
<svg version="1.1" id="Capa_1" xmlns="http://www.w3.org/2000/svg" xmlns:xlink="http://www.w3.org/1999/xlink" x="0px" y="0px"
	 viewBox="0 0 43.35 30" style="enable-background:new 0 0 43.35 30;" xml:space="preserve">
<style type="text/css">
	.st0{fill:#03264C;}
	.st1{fill:#EAC926;}
	.st2{fill:#FFFFFF;}
</style>
<g>
	<path class="st0" d="M43.35,14.18C43.35,6.37,33.64,0,21.67,0C9.71,0,0,6.37,0,14.18c0,0.2,0,0.76,0,0.83C0,23.29,8.48,30,21.67,30
		c13.27,0,21.68-6.71,21.68-14.99C43.35,14.72,43.35,14.55,43.35,14.18z"/>
	<path class="st1" d="M42.52,14.17c0,7.36-9.33,13.33-20.84,13.33c-11.51,0-20.84-5.97-20.84-13.33c0-7.36,9.33-13.33,20.84-13.33
		C33.19,0.84,42.52,6.81,42.52,14.17z"/>
	<g>
		<path class="st2" d="M14.76,9.96c-0.01,0.02-0.22,0.24-0.08,0.41c0.33,0.42,1.34,0.66,2.37,0.43c0.61-0.14,1.4-0.76,2.15-1.36
			c0.82-0.65,1.64-1.31,2.46-1.57c0.87-0.28,1.43-0.16,1.79-0.05c0.4,0.12,0.88,0.39,1.64,0.95c1.43,1.07,7.16,6.08,8.15,6.94
			c0.8-0.36,4.34-1.89,9.16-2.95c-0.42-2.57-1.98-4.92-4.35-6.84c-3.3,1.39-7.34,2.11-11.29,0.18c-0.02-0.01-2.16-1.02-4.26-0.97
			C19.37,5.21,18.01,6.57,16.58,8L14.76,9.96z"/>
		<path class="st2" d="M33.01,16.26c-0.07-0.06-6.74-5.9-8.25-7.04c-0.88-0.66-1.36-0.82-1.87-0.89c-0.27-0.03-0.63,0.01-0.89,0.09
			c-0.7,0.19-1.62,0.81-2.44,1.45c-0.85,0.67-1.64,1.31-2.38,1.47c-0.94,0.21-2.1-0.04-2.63-0.39c-0.21-0.14-0.36-0.31-0.44-0.48
			c-0.19-0.45,0.16-0.81,0.22-0.87l1.84-1.99c0.21-0.21,0.43-0.43,0.65-0.64c-0.59,0.08-1.14,0.23-1.68,0.38
			c-0.67,0.19-1.31,0.37-1.96,0.37c-0.27,0-1.72-0.24-2-0.31c-1.67-0.46-3.13-0.9-5.31-1.92C3.25,7.44,1.5,9.87,1,12.56
			c0.38,0.1,0.98,0.28,1.24,0.34c5.93,1.32,7.77,2.67,8.11,2.96c0.36-0.4,0.89-0.66,1.47-0.66c0.66,0,1.25,0.33,1.61,0.84
			c0.34-0.27,0.81-0.5,1.41-0.5c0.27,0,0.56,0.05,0.85,0.15c0.67,0.23,1.01,0.67,1.19,1.08c0.22-0.1,0.5-0.18,0.82-0.17
			c0.32,0,0.65,0.07,0.99,0.22c1.09,0.47,1.26,1.54,1.16,2.35c0.08-0.01,0.16-0.01,0.24-0.01c1.3,0,2.35,1.05,2.35,2.35
			c0,0.4-0.1,0.78-0.28,1.11c0.35,0.2,1.25,0.65,2.04,0.55c0.63-0.08,0.87-0.29,0.96-0.42c0.06-0.08,0.12-0.18,0.06-0.25l-1.67-1.86
			c0,0-0.28-0.26-0.18-0.36c0.09-0.1,0.26,0.04,0.38,0.15c0.85,0.71,1.89,1.78,1.89,1.78c0.02,0.01,0.09,0.15,0.47,0.22
			c0.33,0.06,0.92,0.03,1.32-0.31c0.1-0.08,0.2-0.19,0.29-0.3c-0.01,0-0.01,0.01-0.02,0.01c0.43-0.55-0.05-1.1-0.05-1.1l-1.95-2.19
			c0,0-0.28-0.26-0.18-0.36c0.09-0.09,0.26,0.05,0.39,0.15c0.62,0.52,1.49,1.39,2.33,2.21c0.16,0.12,0.9,0.57,1.87-0.07
			c0.59-0.39,0.71-0.86,0.69-1.22c-0.04-0.48-0.41-0.81-0.41-0.81l-2.67-2.68c0,0-0.28-0.24-0.18-0.36c0.08-0.1,0.26,0.05,0.38,0.15
			c0.85,0.71,3.15,2.82,3.15,2.82c0.03,0.02,0.83,0.59,1.81-0.04c0.35-0.22,0.58-0.56,0.59-0.96
			C33.49,16.67,33.01,16.26,33.01,16.26z"/>
		<path class="st2" d="M20.07,19.66c-0.41,0-0.87,0.24-0.93,0.21c-0.03-0.02,0.03-0.19,0.06-0.28c0.04-0.1,0.58-1.73-0.74-2.3
			c-1.02-0.44-1.64,0.05-1.85,0.28c-0.06,0.06-0.08,0.05-0.09-0.02c-0.02-0.29-0.15-1.09-1.03-1.36c-1.25-0.38-2.06,0.49-2.26,0.81
			c-0.09-0.71-0.7-1.27-1.43-1.27c-0.8,0-1.45,0.65-1.46,1.45c0,0.8,0.65,1.45,1.45,1.45c0.39,0,0.74-0.16,1.01-0.41
			c0.01,0.01,0.01,0.02,0.01,0.05c-0.06,0.36-0.17,1.67,1.19,2.2c0.55,0.21,1.02,0.05,1.4-0.22c0.12-0.08,0.13-0.05,0.12,0.06
			c-0.05,0.34,0.01,1.06,1.02,1.46c0.77,0.31,1.22-0.01,1.52-0.28c0.13-0.12,0.16-0.1,0.17,0.08c0.04,0.97,0.84,1.75,1.83,1.75
			c1.01,0,1.83-0.82,1.83-1.83C21.9,20.48,21.09,19.67,20.07,19.66z"/>
	</g>
	<path class="st0" d="M33.27,15.56c-2.06-1.79-6.81-5.93-8.09-6.89c-0.74-0.55-1.24-0.84-1.68-0.98c-0.2-0.06-0.47-0.13-0.82-0.13
		c-0.33,0-0.68,0.06-1.05,0.18c-0.83,0.26-1.66,0.92-2.46,1.56l-0.04,0.03c-0.75,0.59-1.52,1.21-2.1,1.34
		c-0.25,0.06-0.52,0.09-0.78,0.09c-0.65,0-1.24-0.19-1.46-0.47c-0.04-0.05-0.01-0.12,0.07-0.23l0.01-0.01l1.81-1.95
		c1.42-1.42,2.75-2.75,5.83-2.82c0.05,0,0.1,0,0.15,0c1.92,0,3.83,0.86,4.05,0.96c1.8,0.88,3.65,1.32,5.52,1.32
		c1.94,0,3.95-0.48,6.06-1.45c-0.24-0.2-0.48-0.39-0.73-0.58c-1.85,0.8-3.62,1.21-5.32,1.21c-1.74,0-3.48-0.42-5.16-1.24
		c-0.09-0.04-2.21-1.04-4.41-1.04c-0.06,0-0.12,0-0.17,0c-2.59,0.06-4.04,0.98-5.02,1.78c-0.95,0.02-1.78,0.25-2.51,0.46
		c-0.65,0.18-1.22,0.34-1.77,0.34c-0.23,0-0.63-0.02-0.67-0.02C11.89,6.99,8.7,6.2,6.17,5.25C5.91,5.43,5.66,5.62,5.42,5.81
		C8.06,6.9,11.29,7.73,12.3,7.8c0.28,0.02,0.58,0.05,0.89,0.05c0.67,0,1.34-0.19,1.99-0.37c0.38-0.11,0.81-0.23,1.25-0.31
		c-0.12,0.12-0.24,0.23-0.36,0.35l-1.84,1.99c-0.15,0.15-0.46,0.54-0.25,1.02c0.08,0.19,0.25,0.38,0.48,0.54
		c0.44,0.29,1.22,0.49,1.95,0.49c0.28,0,0.54-0.03,0.78-0.08c0.77-0.17,1.58-0.82,2.43-1.5c0.68-0.54,1.65-1.23,2.39-1.43
		c0.21-0.06,0.46-0.09,0.67-0.09c0.06,0,0.12,0,0.17,0.01c0.49,0.06,0.96,0.23,1.81,0.86c1.51,1.13,8.18,6.97,8.25,7.03
		c0,0,0.43,0.37,0.4,0.98c-0.02,0.34-0.2,0.64-0.53,0.85c-0.28,0.18-0.58,0.27-0.88,0.27c-0.45,0-0.75-0.21-0.77-0.22
		c-0.02-0.02-2.31-2.12-3.15-2.82c-0.13-0.11-0.26-0.21-0.4-0.21c-0.07,0-0.13,0.03-0.17,0.08c-0.13,0.16,0.02,0.39,0.19,0.54
		l2.67,2.69c0,0,0.33,0.31,0.37,0.72c0.02,0.45-0.19,0.82-0.63,1.11c-0.32,0.21-0.63,0.31-0.95,0.31c-0.41,0-0.7-0.19-0.76-0.23
		l-0.38-0.38c-0.7-0.69-1.42-1.4-1.95-1.84C25.84,18.1,25.7,18,25.57,18c-0.06,0-0.12,0.02-0.17,0.07c-0.06,0.07-0.1,0.19,0.05,0.39
		c0.06,0.08,0.13,0.15,0.13,0.15l1.95,2.19c0.02,0.02,0.4,0.48,0.04,0.93l-0.07,0.09c-0.06,0.06-0.12,0.12-0.18,0.17
		c-0.33,0.27-0.78,0.3-0.95,0.3c-0.09,0-0.19-0.01-0.26-0.02c-0.19-0.03-0.32-0.09-0.38-0.16l-0.02-0.02
		c-0.11-0.11-1.09-1.11-1.9-1.79c-0.11-0.09-0.24-0.2-0.38-0.2c-0.07,0-0.13,0.03-0.18,0.08c-0.16,0.18,0.08,0.44,0.18,0.54
		l1.66,1.83c0,0.02-0.02,0.05-0.06,0.11c-0.06,0.08-0.26,0.28-0.86,0.36c-0.07,0.01-0.15,0.01-0.22,0.01c-0.62,0-1.29-0.3-1.63-0.48
		c0.16-0.33,0.24-0.69,0.24-1.05c0-1.37-1.11-2.48-2.48-2.48c-0.03,0-0.06,0-0.09,0c0.04-0.62-0.04-1.81-1.26-2.33
		c-0.35-0.15-0.7-0.23-1.04-0.23c-0.27,0-0.52,0.05-0.76,0.14c-0.25-0.49-0.67-0.84-1.21-1.03c-0.3-0.1-0.6-0.16-0.89-0.16
		c-0.51,0-0.97,0.15-1.39,0.44c-0.4-0.49-1-0.79-1.63-0.79c-0.55,0-1.09,0.22-1.48,0.61c-0.52-0.4-2.57-1.7-8.06-2.95
		C2,12.67,1.39,12.49,1.01,12.38c-0.06,0.3-0.11,0.6-0.14,0.9c0,0,1.01,0.24,1.21,0.29c5.61,1.25,7.47,2.54,7.78,2.79
		c-0.11,0.25-0.16,0.53-0.16,0.81c0,1.16,0.94,2.1,2.1,2.1c0.13,0,0.26-0.01,0.39-0.03c0.17,0.85,0.73,1.5,1.59,1.83
		c0.25,0.1,0.5,0.15,0.75,0.15c0.16,0,0.32-0.02,0.48-0.06c0.16,0.4,0.51,0.9,1.31,1.22c0.28,0.11,0.56,0.17,0.83,0.17
		c0.22,0,0.44-0.04,0.64-0.12c0.38,0.93,1.28,1.54,2.29,1.54c0.67,0,1.31-0.27,1.78-0.75c0.4,0.22,1.25,0.63,2.1,0.63
		c0.11,0,0.21-0.01,0.32-0.02c0.85-0.11,1.24-0.44,1.42-0.7c0.03-0.04,0.06-0.09,0.09-0.14c0.2,0.06,0.42,0.1,0.67,0.1
		c0.46,0,0.91-0.16,1.36-0.48c0.44-0.32,0.76-0.78,0.8-1.16c0-0.01,0-0.01,0-0.02c0.15,0.03,0.3,0.05,0.45,0.05
		c0.48,0,0.95-0.15,1.39-0.44c0.86-0.57,1.01-1.31,1-1.79c0.15,0.03,0.31,0.05,0.46,0.05c0.45,0,0.89-0.14,1.31-0.4
		c0.54-0.34,0.86-0.87,0.91-1.48c0.03-0.42-0.07-0.83-0.29-1.19c1.45-0.62,4.76-1.83,8.66-2.71c-0.02-0.3-0.07-0.6-0.12-0.9
		C37.67,13.65,34.15,15.17,33.27,15.56z M20.07,23.19c-0.92,0-1.66-0.71-1.69-1.62c0-0.08-0.01-0.29-0.19-0.29
		c-0.07,0-0.13,0.04-0.21,0.11c-0.2,0.19-0.46,0.38-0.83,0.38c-0.17,0-0.35-0.04-0.55-0.12c-0.97-0.39-0.98-1.06-0.94-1.32
		c0.01-0.07,0.01-0.15-0.03-0.2l-0.06-0.05h-0.06c-0.05,0-0.1,0.02-0.17,0.07c-0.28,0.2-0.55,0.29-0.82,0.29
		c-0.15,0-0.3-0.03-0.46-0.09c-1.27-0.5-1.17-1.7-1.11-2.06c0.01-0.07-0.01-0.13-0.06-0.17l-0.09-0.07l-0.08,0.08
		c-0.25,0.24-0.57,0.37-0.91,0.37c-0.73,0-1.32-0.59-1.32-1.32c0-0.73,0.59-1.32,1.32-1.32c0.66,0,1.22,0.5,1.3,1.15l0.04,0.36
		l0.19-0.3c0.02-0.04,0.56-0.84,1.54-0.84c0.19,0,0.38,0.03,0.57,0.09c0.78,0.24,0.92,0.95,0.94,1.25c0.01,0.17,0.14,0.18,0.16,0.18
		c0.07,0,0.12-0.04,0.15-0.08c0.15-0.15,0.47-0.41,0.97-0.41c0.23,0,0.48,0.05,0.73,0.16c1.25,0.53,0.68,2.12,0.67,2.13
		c-0.11,0.26-0.11,0.38-0.01,0.44L19.13,20h0.04c0.06,0,0.13-0.02,0.24-0.06c0.17-0.06,0.43-0.15,0.66-0.15h0
		c0.94,0.01,1.7,0.77,1.7,1.7C21.77,22.43,21.01,23.19,20.07,23.19z"/>
</g>
</svg>
